name C:\Users\antoi\Documents\MyRepositories\upper-imu-dc\Results\main_tracking\Case_79\ABD01_angularVelocities_bodyFrame.mot
datacolumns 4
datarows 117
range 4.63000000 5.79000000
endheader 
time	radius_imu_x	radius_imu_y	radius_imu_z	
          4.63000000	         -0.78745697	         -0.19000455	         -0.27044926	
          4.64000000	         -0.78490286	         -0.18539017	         -0.26656913	
          4.65000000	         -0.78220894	         -0.18031473	         -0.26282561	
          4.66000000	         -0.77932312	         -0.17536967	         -0.25923850	
          4.67000000	         -0.77620043	         -0.17109473	         -0.25580778	
          4.68000000	         -0.77281275	         -0.16792827	         -0.25251301	
          4.69000000	         -0.76915527	         -0.16617057	         -0.24931519	
          4.70000000	         -0.76524834	         -0.16596227	         -0.24616147	
          4.71000000	         -0.76113519	         -0.16728414	         -0.24298993	
          4.72000000	         -0.75687753	         -0.16997723	         -0.23973229	
          4.73000000	         -0.75254973	         -0.17377224	         -0.23631480	
          4.74000000	         -0.74823306	         -0.17832056	         -0.23265982	
          4.75000000	         -0.74400810	         -0.18322624	         -0.22869122	
          4.76000000	         -0.73994598	         -0.18807408	         -0.22434307	
          4.77000000	         -0.73610376	         -0.19245556	         -0.21956450	
          4.78000000	         -0.73252359	         -0.19599180	         -0.21432287	
          4.79000000	         -0.72923221	         -0.19835590	         -0.20860914	
          4.80000000	         -0.72624228	         -0.19929497	         -0.20244143	
          4.81000000	         -0.72355571	         -0.19864460	         -0.19586596	
          4.82000000	         -0.72116798	         -0.19633645	         -0.18895460	
          4.83000000	         -0.71907164	         -0.19239942	         -0.18180003	
          4.84000000	         -0.71726196	         -0.18694718	         -0.17450724	
          4.85000000	         -0.71573909	         -0.18016215	         -0.16718677	
          4.86000000	         -0.71450537	         -0.17227934	         -0.15995160	
          4.87000000	         -0.71357062	         -0.16356145	         -0.15290842	
          4.88000000	         -0.71295459	         -0.15428142	         -0.14614767	
          4.89000000	         -0.71268094	         -0.14471020	         -0.13974066	
          4.90000000	         -0.71276903	         -0.13510590	         -0.13373990	
          4.91000000	         -0.71322122	         -0.12571381	         -0.12818288	
          4.92000000	         -0.71402020	         -0.11676467	         -0.12309872	
          4.93000000	         -0.71511799	         -0.10846523	         -0.11850110	
          4.94000000	         -0.71642502	         -0.10099242	         -0.11438500	
          4.95000000	         -0.71782612	         -0.09448488	         -0.11072845	
          4.96000000	         -0.71920010	         -0.08902587	         -0.10748393	
          4.97000000	         -0.72040893	         -0.08465137	         -0.10459342	
          4.98000000	         -0.72131460	         -0.08135152	         -0.10199048	
          4.99000000	         -0.72180579	         -0.07908076	         -0.09959574	
          5.00000000	         -0.72178547	         -0.07777935	         -0.09732924	
          5.01000000	         -0.72118528	         -0.07738890	         -0.09511473	
          5.02000000	         -0.71997576	         -0.07787889	         -0.09288388	
          5.03000000	         -0.71815525	         -0.07925712	         -0.09058176	
          5.04000000	         -0.71572442	         -0.08158596	         -0.08817824	
          5.05000000	         -0.71270837	         -0.08497495	         -0.08565472	
          5.06000000	         -0.70915384	         -0.08956281	         -0.08300017	
          5.07000000	         -0.70509672	         -0.09550898	         -0.08022051	
          5.08000000	         -0.70056849	         -0.10296064	         -0.07732982	
          5.09000000	         -0.69559812	         -0.11202375	         -0.07434342	
          5.10000000	         -0.69021340	         -0.12274377	         -0.07127428	
          5.11000000	         -0.68443375	         -0.13510214	         -0.06813776	
          5.12000000	         -0.67828028	         -0.14900428	         -0.06494295	
          5.13000000	         -0.67178539	         -0.16428337	         -0.06168614	
          5.14000000	         -0.66498627	         -0.18071250	         -0.05835801	
          5.15000000	         -0.65792474	         -0.19801154	         -0.05494536	
          5.16000000	         -0.65064625	         -0.21586335	         -0.05143117	
          5.17000000	         -0.64319884	         -0.23392935	         -0.04779458	
          5.18000000	         -0.63563276	         -0.25187308	         -0.04401429	
          5.19000000	         -0.62799782	         -0.26938657	         -0.04007657	
          5.20000000	         -0.62034107	         -0.28621156	         -0.03598279	
          5.21000000	         -0.61270651	         -0.30216506	         -0.03175622	
          5.22000000	         -0.60513952	         -0.31713865	         -0.02743850	
          5.23000000	         -0.59768849	         -0.33107528	         -0.02309873	
          5.24000000	         -0.59040093	         -0.34395115	         -0.01883605	
          5.25000000	         -0.58336924	         -0.35576749	         -0.01473920	
          5.26000000	         -0.57669517	         -0.36654273	         -0.01089246	
          5.27000000	         -0.57045257	         -0.37623902	         -0.00738960	
          5.28000000	         -0.56471336	         -0.38485828	         -0.00429831	
          5.29000000	         -0.55955204	         -0.39243402	         -0.00165565	
          5.30000000	         -0.55506216	         -0.39875729	          0.00049935	
          5.31000000	         -0.55135193	         -0.40352422	          0.00212709	
          5.32000000	         -0.54846591	         -0.40655495	          0.00325781	
          5.33000000	         -0.54642051	         -0.40787756	          0.00396010	
          5.34000000	         -0.54530498	         -0.40727087	          0.00422979	
          5.35000000	         -0.54509884	         -0.40453388	          0.00410444	
          5.36000000	         -0.54570434	         -0.39954061	          0.00367294	
          5.37000000	         -0.54703057	         -0.39244520	          0.00304060	
          5.38000000	         -0.54896382	         -0.38328202	          0.00228797	
          5.39000000	         -0.55136631	         -0.37212225	          0.00148549	
          5.40000000	         -0.55405765	         -0.35936784	          0.00074468	
          5.41000000	         -0.55687465	         -0.34531105	          0.00014910	
          5.42000000	         -0.55968009	         -0.33023610	         -0.00023004	
          5.43000000	         -0.56236343	         -0.31448812	         -0.00032004	
          5.44000000	         -0.56485123	         -0.29840085	         -0.00004989	
          5.45000000	         -0.56711163	         -0.28227764	          0.00065599	
          5.46000000	         -0.56914936	         -0.26638590	          0.00186939	
          5.47000000	         -0.57099811	         -0.25091857	          0.00365259	
          5.48000000	         -0.57271140	         -0.23600301	          0.00605485	
          5.49000000	         -0.57435192	         -0.22173818	          0.00911277	
          5.50000000	         -0.57598903	         -0.20819017	          0.01284666	
          5.51000000	         -0.57768638	         -0.19541688	          0.01724063	
          5.52000000	         -0.57949792	         -0.18348421	          0.02226215	
          5.53000000	         -0.58147754	         -0.17247348	          0.02786056	
          5.54000000	         -0.58369034	         -0.16246915	          0.03397244	
          5.55000000	         -0.58620006	         -0.15357731	          0.04051002	
          5.56000000	         -0.58907040	         -0.14591826	          0.04736984	
          5.57000000	         -0.59236959	         -0.13958813	          0.05446886	
          5.58000000	         -0.59615645	         -0.13468207	          0.06173299	
          5.59000000	         -0.60046103	         -0.13127809	          0.06907255	
          5.60000000	         -0.60527816	         -0.12941952	          0.07639547	
          5.61000000	         -0.61056334	         -0.12912065	          0.08361869	
          5.62000000	         -0.61622490	         -0.13035594	          0.09065703	
          5.63000000	         -0.62212863	         -0.13306171	          0.09742950	
          5.64000000	         -0.62810697	         -0.13714027	          0.10386240	
          5.65000000	         -0.63397435	         -0.14244759	          0.10988860	
          5.66000000	         -0.63954202	         -0.14879789	          0.11544510	
          5.67000000	         -0.64463896	         -0.15596096	          0.12048554	
          5.68000000	         -0.64911957	         -0.16366694	          0.12496802	
          5.69000000	         -0.65287778	         -0.17161617	          0.12885949	
          5.70000000	         -0.65585036	         -0.17949729	          0.13214378	
          5.71000000	         -0.65800600	         -0.18701178	          0.13480968	
          5.72000000	         -0.65934780	         -0.19387897	          0.13687318	
          5.73000000	         -0.65990937	         -0.19985796	          0.13836990	
          5.74000000	         -0.65974678	         -0.20476117	          0.13934544	
          5.75000000	         -0.65893389	         -0.20845684	          0.13985775	
          5.76000000	         -0.65755950	         -0.21086936	          0.13996905	
          5.77000000	         -0.65572399	         -0.21198072	          0.13974272	
          5.78000000	         -0.65353746	         -0.21182896	          0.13923813	
          5.79000000	         -0.65111812	         -0.21050411	          0.13850743	
